# xmcd
#
# Track frame offsets: 
#        150
#        35172
#        83850
#        131492
#        161642
#        205400
#        243085
#        270270
#        304145
#
# Disc length: 4375 seconds
#
# Revision: 1
# Processed by: cddbd v1.5.1PL2 Copyright (c) Steve Scherf et al.
# Submitted via: ExactAudioCopy v0.95b3
#
DISCID=74111509
DTITLE=George Szell - Great Conductors Of The 20th Century: George Sze
DTITLE=ll [CD 1)
DYEAR=2003
DGENRE=Classical
TTITLE0=Daniel-François-Esprit Auber - Fra Diavolo: Overture
TTITLE1=Antonín Dvoøák - Symphony No. 8 (Part 1)
TTITLE2=Antonín Dvoøák - Symphony No. 8 (Part 2)
TTITLE3=Antonín Dvoøák - Symphony No. 8 (Part 3)
TTITLE4=Antonín Dvoøák - Symphony No. 8 (Part 4)
TTITLE5=Claude Debussy - La Mer (Part 1)
TTITLE6=Claude Debussy - La Mer (Part 2)
TTITLE7=Claude Debussy - La Mer (Part 3)
TTITLE8=Frederick Delius - Irmelin: Prelude
EXTD=
EXTT0=
EXTT1=
EXTT2=
EXTT3=
EXTT4=
EXTT5=
EXTT6=
EXTT7=
EXTT8=
PLAYORDER=
